<?xml version="1.0" encoding="utf-8"?>
<!-- Generator: Adobe Illustrator 25.2.0, SVG Export Plug-In . SVG Version: 6.00 Build 0)  -->
<svg version="1.1" id="Layer_1" xmlns="http://www.w3.org/2000/svg" xmlns:xlink="http://www.w3.org/1999/xlink" x="0px" y="0px"
	 viewBox="0 0 60 60" enable-background="new 0 0 60 60" xml:space="preserve">
<path fill="#FFFFFF" d="M58.3,5.2l-52.9,53c-1,1-2.8,1.1-3.8,0c-0.9-1-0.8-2.5,0.1-3.4l52.9-53c0.9-0.9,2.6-1.1,3.5-0.2
	C59.2,2.5,59.3,4.2,58.3,5.2z"/>
<path fill="#FFFFFF" d="M1.7,5.2l52.9,53c1,1,2.8,1.1,3.8,0c0.9-1,0.8-2.5-0.1-3.4L5.4,1.8C4.5,0.9,2.8,0.7,1.9,1.6
	C0.8,2.5,0.7,4.2,1.7,5.2z"/>
</svg>
