<?xml version="1.0" encoding="utf-8"?>
<!-- Generator: Adobe Illustrator 25.2.0, SVG Export Plug-In . SVG Version: 6.00 Build 0)  -->
<svg version="1.1" id="Layer_1" xmlns="http://www.w3.org/2000/svg" xmlns:xlink="http://www.w3.org/1999/xlink" x="0px" y="0px"
	 viewBox="0 0 60 60" style="enable-background:new 0 0 60 60;" xml:space="preserve">
<style type="text/css">
	.st0{fill:#FFFFFF;}
</style>
<path class="st0" d="M57.5,32.5h-55C1.1,32.5,0,31.4,0,30s1.1-2.5,2.5-2.5h55c1.4,0,2.5,1.1,2.5,2.5S58.9,32.5,57.5,32.5z"/>
<path class="st0" d="M57.5,13.3h-55c-1.4,0-2.5-1.1-2.5-2.5s1.1-2.5,2.5-2.5h55c1.4,0,2.5,1.1,2.5,2.5S58.9,13.3,57.5,13.3z"/>
<path class="st0" d="M57.5,51.7h-55c-1.4,0-2.5-1.1-2.5-2.5s1.1-2.5,2.5-2.5h55c1.4,0,2.5,1.1,2.5,2.5S58.9,51.7,57.5,51.7z"/>
</svg>
